<svg xmlns="http://www.w3.org/2000/svg" width="40" height="40" viewBox="0 0 40 40">
  <g id="Group_3606" data-name="Group 3606" transform="translate(-1719 -55)">
    <rect id="light" width="40" height="40" rx="20" transform="translate(1719 55)" fill="#fff"/>
    <g id="Group_3480" data-name="Group 3480" transform="translate(-1365.121 1134)">
      <path id="Path_3492" data-name="Path 3492" d="M3103.894-1072a13.032,13.032,0,0,0-12.776,12.773c0,6.418,4.736,13.229,12.776,13.229s13.229-5.908,13.229-13.229S3111.19-1072,3103.894-1072Z" fill="#2c2c2c"/>
      <path id="Intersection_10" data-name="Intersection 10" d="M0,12.773A13.032,13.032,0,0,1,12.776,0a14.143,14.143,0,0,1,3.7.487A12.872,12.872,0,0,0,7.212,13.1c0,8.039,6.532,11.289,9.568,12.365a14.731,14.731,0,0,1-4,.535C4.736,26,0,19.191,0,12.773Z" transform="translate(3091.118 -1072)" fill="#545454"/>
      <path id="Path_3495" data-name="Path 3495" d="M3157.645-871.431a1.032,1.032,0,0,0-1.042,1.042,1.069,1.069,0,0,0,1.042,1.05,1.052,1.052,0,0,0,1.042-1.05A1.017,1.017,0,0,0,3157.645-871.431Z" transform="translate(-62.162 -190.391)" fill="#242424"/>
      <path id="Path_3497" data-name="Path 3497" d="M3158.132-871.431a1.515,1.515,0,0,0-1.529,1.529,1.57,1.57,0,0,0,1.529,1.542,1.545,1.545,0,0,0,1.529-1.542A1.493,1.493,0,0,0,3158.132-871.431Z" transform="translate(-45.345 -189.114)" fill="#242424"/>
      <path id="Path_3496" data-name="Path 3496" d="M3159.658-871.431a3.027,3.027,0,0,0-3.056,3.056,3.136,3.136,0,0,0,3.056,3.081,3.086,3.086,0,0,0,3.056-3.081A2.983,2.983,0,0,0,3159.658-871.431Z" transform="translate(-51.556 -185.571)" fill="#242424"/>
      <path id="Path_3500" data-name="Path 3500" d="M3231.718-948.5a1.42,1.42,0,0,0-1.583,1.255,1.41,1.41,0,0,0,1.583,1.281c.966,0,1.6-.579,1.6-1.281S3232.638-948.5,3231.718-948.5Z" transform="translate(-131.963 -117.237)"/>
      <path id="Path_3501" data-name="Path 3501" d="M3231.718-948.5a1.42,1.42,0,0,0-1.583,1.255,1.41,1.41,0,0,0,1.583,1.281c.966,0,1.6-.579,1.6-1.281S3232.638-948.5,3231.718-948.5Z" transform="translate(-123.286 -117.237)"/>
      <path id="Path_3498" data-name="Path 3498" d="M3261.7-962.644a.351.351,0,0,0-.376.386c0,.368.577.634.93.634s.954-.254.954-.634a.356.356,0,0,0-.383-.386c-.278,0-.4.266-.571.266S3261.969-962.644,3261.7-962.644Z" transform="translate(-161.571 -103.807)" fill="#fff"/>
      <path id="Path_3499" data-name="Path 3499" d="M3262.04-963.42a.338.338,0,0,0-.359.342c0,.428.751.765,1.221.765.555,0,1.264-.319,1.264-.765a.336.336,0,0,0-.367-.342c-.37,0-.538.393-.9.393C3262.509-963.028,3262.4-963.42,3262.04-963.42Z" transform="translate(-158.812 -102.56)" fill="#fff"/>
      <path id="Path_3502" data-name="Path 3502" d="M3261.7-962.644a.351.351,0,0,0-.376.386c0,.368.577.634.93.634s.954-.254.954-.634a.356.356,0,0,0-.383-.386c-.278,0-.4.266-.571.266S3261.969-962.644,3261.7-962.644Z" transform="translate(-154.743 -103.807)" fill="#fff"/>
    </g>
  </g>
</svg>
