<?xml version="1.0" encoding="utf-8"?>
<!-- Generator: Adobe Illustrator 23.0.3, SVG Export Plug-In . SVG Version: 6.00 Build 0)  -->
<svg version="1.1" id="Layer_1" xmlns="http://www.w3.org/2000/svg" xmlns:xlink="http://www.w3.org/1999/xlink" x="0px" y="0px"
	 viewBox="0 0 300 300" style="enable-background:new 0 0 300 300;" xml:space="preserve">
<style type="text/css">
	.st0{fill:#00dd9a;}
</style>
<g>
	<path class="st0" d="M150,300C67.3,300,0,232.7,0,150S67.3,0,150,0s150,67.3,150,150S232.7,300,150,300z M150,14.3
		C75.2,14.3,14.3,75.2,14.3,150S75.2,285.7,150,285.7S285.7,224.8,285.7,150S224.8,14.3,150,14.3z"/>
</g>
<g>
	<path class="st0" d="M132.2,81c0-10.4,7.5-17.9,17.9-17.9c10.4,0,17.6,7.5,17.6,17.9s-7.3,17.6-17.6,17.6
		C139.8,98.7,132.2,91.4,132.2,81z M135.1,118h30v118.8h-30V118z"/>
</g>
</svg>
