<svg xmlns="http://www.w3.org/2000/svg" width="40" height="40" viewBox="0 0 40 40">
  <g id="Group_3607" data-name="Group 3607" transform="translate(-1765 -55)">
    <rect id="light" width="40" height="40" rx="20" transform="translate(1765 55)" fill="#121420"/>
    <g id="Group_3479" data-name="Group 3479" transform="translate(-1885.57 1134.409)">
      <path id="Path_3480" data-name="Path 3480" d="M3667.69-1070.161s1.409-1.408,1.974-1.907a1.425,1.425,0,0,1,1.907.055c.488.477,1.885,1.852,1.885,1.852s1.675-.432,2.462-.621a1.471,1.471,0,0,1,1.852,1.087c.266.943.677,2.418.677,2.418s1.464.4,2.318.654a1.465,1.465,0,0,1,1.187,1.885c-.244,1.076-.588,2.462-.588,2.462s1.087,1.087,1.73,1.763a1.492,1.492,0,0,1,0,2.174c-.61.643-1.741,1.819-1.741,1.819s.422,1.564.61,2.417a1.461,1.461,0,0,1-1,1.852c-.843.255-2.529.71-2.529.71s-.366,1.442-.632,2.329a1.519,1.519,0,0,1-2.019,1.142c-1.131-.266-2.329-.588-2.329-.588s-1.264,1.264-1.83,1.8a1.422,1.422,0,0,1-2.085,0c-.743-.676-1.852-1.8-1.852-1.8s-1.575.432-2.351.61a1.481,1.481,0,0,1-1.963-1.087l-.643-2.406s-1.508-.388-2.329-.621a1.511,1.511,0,0,1-1.176-2.063c.322-1.3.577-2.3.577-2.3s-1.4-1.475-1.918-2a1.46,1.46,0,0,1,.088-1.885c.4-.444,1.83-1.907,1.83-1.907s-.444-1.719-.632-2.473a1.467,1.467,0,0,1,1.076-1.83c.921-.255,2.451-.654,2.451-.654s.477-1.708.688-2.451a1.48,1.48,0,0,1,1.83-1.076C3666.16-1070.583,3667.69-1070.161,3667.69-1070.161Z" fill="#ffde55"/>
      <path id="Intersection_7" data-name="Intersection 7" d="M11.965,23.978c-.743-.676-1.852-1.8-1.852-1.8s-1.575.433-2.351.61A1.48,1.48,0,0,1,5.8,21.7L5.156,19.3s-1.508-.388-2.329-.621a1.511,1.511,0,0,1-1.175-2.063c.322-1.3.577-2.3.577-2.3s-1.4-1.475-1.919-2A1.459,1.459,0,0,1,.4,10.437c.4-.444,1.83-1.907,1.83-1.907S1.785,6.811,1.6,6.057a1.467,1.467,0,0,1,1.076-1.83c.92-.255,2.451-.654,2.451-.654S5.6,1.865,5.81,1.122A1.48,1.48,0,0,1,7.64.046c.335.075.744.176,1.132.276-.374,1.5-1.554,7.037.1,11.3,1.832,4.716,5.213,7.071,6.268,11.29-.379.375-.818.805-1.092,1.064a1.528,1.528,0,0,1-1.039.455A1.549,1.549,0,0,1,11.965,23.978Z" transform="translate(3657.577 -1070.839)" fill="#ffc757"/>
      <path id="Path_3483" data-name="Path 3483" d="M3746.819-991.422a8.909,8.909,0,0,0-8.921,8.991,8.886,8.886,0,0,0,8.921,8.82,8.966,8.966,0,0,0,8.914-8.82A8.986,8.986,0,0,0,3746.819-991.422Z" transform="translate(-76.248 -76.881)" fill="#ffeb99"/>
      <path id="Intersection_9" data-name="Intersection 9" d="M0,7.561A8.9,8.9,0,0,1,4.071,0,17.024,17.024,0,0,0,4.8,7.659c1.415,3.643,3.754,5.877,5.232,8.649a8.508,8.508,0,0,1-1.113.073A8.886,8.886,0,0,1,0,7.561Z" transform="translate(3661.649 -1066.874)" fill="#ffe36c"/>
      <path id="Path_3489" data-name="Path 3489" d="M3787.932-827.715a1.388,1.388,0,0,0-1.531,1.231,1.409,1.409,0,0,0,1.531,1.242c.755,0,1.586-.43,1.586-1.242S3788.708-827.715,3787.932-827.715Z" transform="translate(-122.293 -232.288)" fill="#ffa6bb"/>
      <path id="Path_3490" data-name="Path 3490" d="M3787.932-827.715a1.388,1.388,0,0,0-1.531,1.231,1.409,1.409,0,0,0,1.531,1.242c.755,0,1.586-.43,1.586-1.242S3788.708-827.715,3787.932-827.715Z" transform="translate(-112.458 -232.288)" fill="#ffa6bb"/>
      <path id="Path_3487" data-name="Path 3487" d="M3823.035-844.456c0-.333.187-.439.389-.439a.387.387,0,0,1,.4.439v.565a.41.41,0,0,1-.4.424.407.407,0,0,1-.389-.424Z" transform="translate(-157.069 -215.979)" fill="#57565c"/>
      <path id="Path_3488" data-name="Path 3488" d="M3823.035-844.456c0-.333.187-.439.389-.439a.387.387,0,0,1,.4.439v.565a.41.41,0,0,1-.4.424.407.407,0,0,1-.389-.424Z" transform="translate(-148.653 -215.979)" fill="#57565c"/>
      <path id="Path_3491" data-name="Path 3491" d="M3884.865-832.055a.45.45,0,0,1,.464-.495h2a.439.439,0,0,1,.479.495c0,.364-.009.611,0,.979a1.434,1.434,0,0,1-1.474,1.469,1.488,1.488,0,0,1-1.469-1.469Z" transform="translate(-215.765 -227.699)" fill="#57565c"/>
    </g>
  </g>
</svg>
