<?xml version="1.0" encoding="UTF-8"?>
<svg xmlns="http://www.w3.org/2000/svg" xmlns:xlink="http://www.w3.org/1999/xlink" width="50pt" height="50pt" viewBox="0 0 50 50" version="1.1">
<g id="surface1">
<path style=" stroke:none;fill-rule:nonzero;fill:rgb(50.980392%,27.843137%,89.803922%);fill-opacity:1;" d="M 37.761719 15.46875 C 36.847656 14.886719 35.675781 14.886719 34.636719 15.46875 L 27.34375 20.269531 L 22.394531 23.328125 L 15.234375 28.128906 C 14.324219 28.710938 13.152344 28.710938 12.109375 28.128906 L 6.511719 24.34375 C 5.597656 23.761719 4.949219 22.597656 4.949219 21.289062 L 4.949219 14.011719 C 4.949219 12.847656 5.46875 11.683594 6.511719 10.957031 L 12.109375 7.320312 C 13.019531 6.738281 14.191406 6.738281 15.234375 7.320312 L 20.832031 11.101562 C 21.746094 11.683594 22.394531 12.847656 22.394531 14.160156 L 22.394531 18.960938 L 27.34375 15.757812 L 27.34375 10.8125 C 27.34375 9.648438 26.824219 8.484375 25.78125 7.753906 L 15.363281 0.914062 C 14.453125 0.332031 13.28125 0.332031 12.238281 0.914062 L 1.5625 7.902344 C 0.519531 8.484375 0 9.648438 0 10.8125 L 0 24.492188 C 0 25.65625 0.519531 26.820312 1.5625 27.546875 L 12.109375 34.386719 C 13.019531 34.96875 14.191406 34.96875 15.234375 34.386719 L 22.394531 29.730469 L 27.34375 26.527344 L 34.503906 21.871094 C 35.417969 21.289062 36.589844 21.289062 37.628906 21.871094 L 43.230469 25.507812 C 44.140625 26.089844 44.792969 27.253906 44.792969 28.566406 L 44.792969 35.839844 C 44.792969 37.007812 44.269531 38.171875 43.230469 38.898438 L 37.761719 42.535156 C 36.847656 43.117188 35.675781 43.117188 34.636719 42.535156 L 29.035156 38.898438 C 28.125 38.316406 27.472656 37.152344 27.472656 35.839844 L 27.472656 31.183594 L 22.527344 34.386719 L 22.527344 39.1875 C 22.527344 40.351562 23.046875 41.515625 24.089844 42.246094 L 34.636719 49.085938 C 35.546875 49.667969 36.71875 49.667969 37.761719 49.085938 L 48.308594 42.246094 C 49.21875 41.664062 49.871094 40.5 49.871094 39.1875 L 49.871094 25.363281 C 49.871094 24.199219 49.347656 23.035156 48.308594 22.308594 Z M 37.761719 15.46875 "/>
</g>
</svg>